<mxfile host="app.diagrams.net" agent="Mozilla/5.0 (Windows NT 10.0; Win64; x64) AppleWebKit/537.36 (KHTML, like Gecko) Chrome/135.0.0.0 Safari/537.36" version="26.2.14">
  <diagram name="PÃ¡gina-1" id="Zv7FAuOFE9218E66vUkT">
    <mxGraphModel dx="872" dy="465" grid="0" gridSize="10" guides="1" tooltips="1" connect="1" arrows="1" fold="1" page="1" pageScale="1" pageWidth="827" pageHeight="1169" math="0" shadow="1">
      <root>
        <mxCell id="0" />
        <mxCell id="1" parent="0" />
        <mxCell id="lkNa364KhpQqWIQ_Bzma-1" value="&amp;lt; body&amp;gt;&amp;nbsp;" style="text;html=1;align=center;verticalAlign=middle;whiteSpace=wrap;rounded=0;" vertex="1" parent="1">
          <mxGeometry x="26" y="20.75" width="60" height="30" as="geometry" />
        </mxCell>
        <mxCell id="lkNa364KhpQqWIQ_Bzma-2" value="" style="rounded=0;whiteSpace=wrap;html=1;fillColor=#647687;fontColor=#ffffff;strokeColor=#314354;" vertex="1" parent="1">
          <mxGeometry x="28" y="53" width="781" height="93" as="geometry" />
        </mxCell>
        <mxCell id="lkNa364KhpQqWIQ_Bzma-3" value="&amp;lt; header &amp;gt;" style="text;html=1;align=center;verticalAlign=middle;whiteSpace=wrap;rounded=0;" vertex="1" parent="1">
          <mxGeometry x="28" y="50.75" width="69" height="30" as="geometry" />
        </mxCell>
        <mxCell id="lkNa364KhpQqWIQ_Bzma-4" value="&amp;lt; / header &amp;gt;" style="text;html=1;align=center;verticalAlign=middle;whiteSpace=wrap;rounded=0;" vertex="1" parent="1">
          <mxGeometry x="737" y="115" width="69" height="30" as="geometry" />
        </mxCell>
        <mxCell id="lkNa364KhpQqWIQ_Bzma-6" value="&amp;lt;h1&amp;gt; PowerGym &amp;lt;/h1&amp;gt;" style="text;html=1;align=center;verticalAlign=middle;whiteSpace=wrap;rounded=0;" vertex="1" parent="1">
          <mxGeometry x="282" y="59" width="225" height="32" as="geometry" />
        </mxCell>
        <mxCell id="lkNa364KhpQqWIQ_Bzma-7" value="&amp;lt;p&amp;gt; Bienvenido al sistema de gestion...&amp;lt;/p&amp;gt;" style="text;html=1;align=center;verticalAlign=middle;whiteSpace=wrap;rounded=0;" vertex="1" parent="1">
          <mxGeometry x="267" y="91" width="255" height="32" as="geometry" />
        </mxCell>
        <mxCell id="lkNa364KhpQqWIQ_Bzma-8" value="" style="rounded=0;whiteSpace=wrap;html=1;fillColor=#f5f5f5;fontColor=#333333;strokeColor=#666666;" vertex="1" parent="1">
          <mxGeometry x="23" y="169.25" width="781" height="443.75" as="geometry" />
        </mxCell>
        <mxCell id="lkNa364KhpQqWIQ_Bzma-9" value="&amp;lt; header &amp;gt;" style="text;html=1;align=center;verticalAlign=middle;whiteSpace=wrap;rounded=0;" vertex="1" parent="1">
          <mxGeometry x="28" y="167" width="69" height="30" as="geometry" />
        </mxCell>
        <mxCell id="lkNa364KhpQqWIQ_Bzma-10" value="&amp;lt; / header &amp;gt;" style="text;html=1;align=center;verticalAlign=middle;whiteSpace=wrap;rounded=0;" vertex="1" parent="1">
          <mxGeometry x="734" y="579" width="69" height="30" as="geometry" />
        </mxCell>
        <mxCell id="lkNa364KhpQqWIQ_Bzma-11" value="&lt;b&gt;&lt;font style=&quot;font-size: 14px;&quot;&gt;&amp;lt; h2 &amp;gt; Indicaciones &amp;lt;/h2&amp;gt;&lt;/font&gt;&lt;/b&gt;" style="text;html=1;align=center;verticalAlign=middle;whiteSpace=wrap;rounded=0;strokeColor=default;" vertex="1" parent="1">
          <mxGeometry x="92" y="233" width="314" height="37" as="geometry" />
        </mxCell>
        <mxCell id="lkNa364KhpQqWIQ_Bzma-12" value="&lt;div style=&quot;font-family: Consolas, &amp;quot;Courier New&amp;quot;, monospace; font-size: 14px; line-height: 19px; white-space: pre;&quot;&gt;&lt;font style=&quot;color: rgb(0, 0, 0);&quot;&gt;&lt;span&gt;&amp;lt;&lt;/span&gt;&lt;span&gt;p&lt;/span&gt;&lt;span&gt;&amp;gt;&lt;/span&gt;&lt;span&gt;Regista productos como equipos, suplementos o membresias,etc.&lt;/span&gt;&lt;span&gt;&amp;lt;/&lt;/span&gt;&lt;span&gt;p&lt;/span&gt;&lt;span&gt;&amp;gt;&lt;/span&gt;&lt;/font&gt;&lt;/div&gt;&lt;div style=&quot;font-family: Consolas, &amp;quot;Courier New&amp;quot;, monospace; font-size: 14px; line-height: 19px; white-space: pre;&quot;&gt;&lt;font style=&quot;color: rgb(0, 0, 0);&quot;&gt;&lt;span&gt;&lt;br&gt;&lt;/span&gt;&lt;/font&gt;&lt;/div&gt;&lt;div style=&quot;text-align: left; font-family: Consolas, &amp;quot;Courier New&amp;quot;, monospace; font-size: 14px; line-height: 19px; white-space: pre;&quot;&gt;&amp;lt;ul&amp;gt;&lt;/div&gt;&lt;div style=&quot;font-family: Consolas, &amp;quot;Courier New&amp;quot;, monospace; font-size: 14px; line-height: 19px; white-space: pre;&quot;&gt;&lt;br&gt;&lt;/div&gt;&lt;div style=&quot;text-align: right; font-family: Consolas, &amp;quot;Courier New&amp;quot;, monospace; font-size: 14px; line-height: 19px; white-space: pre;&quot;&gt;&lt;span style=&quot;text-align: left;&quot;&gt;&amp;lt;/ul&amp;gt;&lt;/span&gt;&lt;/div&gt;" style="text;html=1;align=center;verticalAlign=middle;whiteSpace=wrap;rounded=0;strokeColor=default;" vertex="1" parent="1">
          <mxGeometry x="86" y="283" width="633" height="112" as="geometry" />
        </mxCell>
        <mxCell id="lkNa364KhpQqWIQ_Bzma-14" value="&amp;lt; section &amp;gt;" style="text;html=1;align=center;verticalAlign=middle;whiteSpace=wrap;rounded=0;" vertex="1" parent="1">
          <mxGeometry x="79" y="192" width="69" height="30" as="geometry" />
        </mxCell>
        <mxCell id="lkNa364KhpQqWIQ_Bzma-15" value="&amp;lt; div &amp;gt;" style="text;html=1;align=center;verticalAlign=middle;whiteSpace=wrap;rounded=0;" vertex="1" parent="1">
          <mxGeometry x="86" y="416" width="69" height="30" as="geometry" />
        </mxCell>
        <mxCell id="lkNa364KhpQqWIQ_Bzma-16" value="&lt;div style=&quot;font-family: Consolas, &amp;quot;Courier New&amp;quot;, monospace; font-size: 14px; line-height: 19px; white-space: pre;&quot;&gt;&lt;span style=&quot;color: rgba(0, 0, 0, 0); font-family: monospace; font-size: 0px; text-align: start; white-space-collapse: collapse;&quot;&gt;%3CmxGraphModel%3E%3Croot%3E%3CmxCell%20id%3D%220%22%2F%3E%3CmxCell%20id%3D%221%22%20parent%3D%220%22%2F%3E%3CmxCell%20id%3D%222%22%20value%3D%22%22%20style%3D%22rounded%3D0%3BwhiteSpace%3Dwrap%3Bhtml%3D1%3B%22%20vertex%3D%221%22%20parent%3D%221%22%3E%3CmxGeometry%20x%3D%2220%22%20y%3D%22240%22%20width%3D%22778%22%20height%3D%22949%22%20as%3D%22geometry%22%2F%3E%3C%2FmxCell%3E%3CmxCell%20id%3D%223%22%20value%3D%22%22%20style%3D%22rounded%3D0%3BwhiteSpace%3Dwrap%3Bhtml%3D1%3BfillColor%3D%23e3c800%3BfontColor%3D%23000000%3BstrokeColor%3D%23B09500%3B%22%20vertex%3D%221%22%20parent%3D%221%22%3E%3CmxGeometry%20x%3D%22149%22%20y%3D%221056.25%22%20width%3D%22140%22%20height%3D%2224.5%22%20as%3D%22geometry%22%2F%3E%3C%2FmxCell%3E%3CmxCell%20id%3D%224%22%20value%3D%22%26amp%3Blt%3Bbuttonl%26amp%3Bgt%3B%22%20style%3D%22text%3Bhtml%3D1%3Balign%3Dcenter%3BverticalAlign%3Dmiddle%3BwhiteSpace%3Dwrap%3Brounded%3D0%3B%22%20vertex%3D%221%22%20parent%3D%221%22%3E%3CmxGeometry%20x%3D%22140%22%20y%3D%221050.75%22%20width%3D%2269%22%20height%3D%2230%22%20as%3D%22geometry%22%2F%3E%3C%2FmxCell%3E%3CmxCell%20id%3D%225%22%20value%3D%22%26amp%3Blt%3B%2Fbutton%26amp%3Bgt%3B%22%20style%3D%22text%3Bhtml%3D1%3Balign%3Dcenter%3BverticalAlign%3Dmiddle%3BwhiteSpace%3Dwrap%3Brounded%3D0%3B%22%20vertex%3D%221%22%20parent%3D%221%22%3E%3CmxGeometry%20x%3D%22224%22%20y%3D%221056.25%22%20width%3D%2269%22%20height%3D%2230%22%20as%3D%22geometry%22%2F%3E%3C%2FmxCell%3E%3C%2Froot%3E%3C%2FmxGraphModel%3E&lt;/span&gt;&lt;span style=&quot;color: rgba(0, 0, 0, 0); font-family: monospace; font-size: 0px; text-align: start; white-space-collapse: collapse; background-color: transparent;&quot;&gt;%3CmxGraphModel%3E%3Croot%3E%3CmxCell%20id%3D%220%22%2F%3E%3CmxCell%20id%3D%221%22%20parent%3D%220%22%2F%3E%3CmxCell%20id%3D%222%22%20value%3D%22%22%20style%3D%22rounded%3D0%3BwhiteSpace%3Dwrap%3Bhtml%3D1%3B%22%20vertex%3D%221%22%20parent%3D%221%22%3E%3CmxGeometry%20x%3D%2220%22%20y%3D%22240%22%20width%3D%22778%22%20height%3D%22949%22%20as%3D%22geometry%22%2F%3E%3C%2FmxCell%3E%3CmxCell%20id%3D%223%22%20value%3D%22%22%20style%3D%22rounded%3D0%3BwhiteSpace%3Dwrap%3Bhtml%3D1%3BfillColor%3D%23e3c800%3BfontColor%3D%23000000%3BstrokeColor%3D%23B09500%3B%22%20vertex%3D%221%22%20parent%3D%221%22%3E%3CmxGeometry%20x%3D%22149%22%20y%3D%221056.25%22%20width%3D%22140%22%20height%3D%2224.5%22%20as%3D%22geometry%22%2F%3E%3C%2FmxCell%3E%3CmxCell%20id%3D%224%22%20value%3D%22%26amp%3Blt%3Bbuttonl%26amp%3Bgt%3B%22%20style%3D%22text%3Bhtml%3D1%3Balign%3Dcenter%3BverticalAlign%3Dmiddle%3BwhiteSpace%3Dwrap%3Brounded%3D0%3B%22%20vertex%3D%221%22%20parent%3D%221%22%3E%3CmxGeometry%20x%3D%22140%22%20y%3D%221050.75%22%20width%3D%2269%22%20height%3D%2230%22%20as%3D%22geometry%22%2F%3E%3C%2FmxCell%3E%3CmxCell%20id%3D%225%22%20value%3D%22%26amp%3Blt%3B%2Fbutton%26amp%3Bgt%3B%22%20style%3D%22text%3Bhtml%3D1%3Balign%3Dcenter%3BverticalAlign%3Dmiddle%3BwhiteSpace%3Dwrap%3Brounded%3D0%3B%22%20vertex%3D%221%22%20parent%3D%221%22%3E%3CmxGeometry%20x%3D%22224%22%20y%3D%221056.25%22%20width%3D%2269%22%20height%3D%2230%22%20as%3D%22geometry%22%2F%3E%3C%2FmxCell%3E%3C%2Froot%3E%3C%2FmxGraphModel%3E&lt;/span&gt;&lt;span style=&quot;color: rgba(0, 0, 0, 0); font-family: monospace; font-size: 0px; text-align: start; white-space-collapse: collapse; background-color: transparent;&quot;&gt;%3CmxGraphModel%3E%3Croot%3E%3CmxCell%20id%3D%220%22%2F%3E%3CmxCell%20id%3D%221%22%20parent%3D%220%22%2F%3E%3CmxCell%20id%3D%222%22%20value%3D%22%22%20style%3D%22rounded%3D0%3BwhiteSpace%3Dwrap%3Bhtml%3D1%3B%22%20vertex%3D%221%22%20parent%3D%221%22%3E%3CmxGeometry%20x%3D%2220%22%20y%3D%22240%22%20width%3D%22778%22%20height%3D%22949%22%20as%3D%22geometry%22%2F%3E%3C%2FmxCell%3E%3CmxCell%20id%3D%223%22%20value%3D%22%22%20style%3D%22rounded%3D0%3BwhiteSpace%3Dwrap%3Bhtml%3D1%3BfillColor%3D%23e3c800%3BfontColor%3D%23000000%3BstrokeColor%3D%23B09500%3B%22%20vertex%3D%221%22%20parent%3D%221%22%3E%3CmxGeometry%20x%3D%22149%22%20y%3D%221056.25%22%20width%3D%22140%22%20height%3D%2224.5%22%20as%3D%22geometry%22%2F%3E%3C%2FmxCell%3E%3CmxCell%20id%3D%224%22%20value%3D%22%26amp%3Blt%3Bbuttonl%26amp%3Bgt%3B%22%20style%3D%22text%3Bhtml%3D1%3Balign%3Dcenter%3BverticalAlign%3Dmiddle%3BwhiteSpace%3Dwrap%3Brounded%3D0%3B%22%20vertex%3D%221%22%20parent%3D%221%22%3E%3CmxGeometry%20x%3D%22140%22%20y%3D%221050.75%22%20width%3D%2269%22%20height%3D%2230%22%20as%3D%22geometry%22%2F%3E%3C%2FmxCell%3E%3CmxCell%20id%3D%225%22%20value%3D%22%26amp%3Blt%3B%2Fbutton%26amp%3Bgt%3B%22%20style%3D%22text%3Bhtml%3D1%3Balign%3Dcenter%3BverticalAlign%3Dmiddle%3BwhiteSpace%3Dwrap%3Brounded%3D0%3B%22%20vertex%3D%221%22%20parent%3D%221%22%3E%3CmxGeometry%20x%3D%22224%22%20y%3D%221056.25%22%20width%3D%2269%22%20height%3D%2230%22%20as%3D%22geometry%22%2F%3E%3C%2FmxCell%3E%3C%2Froot%3E%3C%2FmxGraphModel%3E&lt;/span&gt;&lt;/div&gt;" style="text;html=1;align=center;verticalAlign=middle;whiteSpace=wrap;rounded=0;strokeColor=default;" vertex="1" parent="1">
          <mxGeometry x="83" y="408" width="633" height="112" as="geometry" />
        </mxCell>
        <mxCell id="lkNa364KhpQqWIQ_Bzma-17" value="&amp;lt; /div &amp;gt;" style="text;html=1;align=center;verticalAlign=middle;whiteSpace=wrap;rounded=0;" vertex="1" parent="1">
          <mxGeometry x="640" y="481" width="69" height="30" as="geometry" />
        </mxCell>
        <mxCell id="lkNa364KhpQqWIQ_Bzma-22" value="" style="rounded=0;whiteSpace=wrap;html=1;" vertex="1" parent="1">
          <mxGeometry x="126" y="451.75" width="167" height="24.5" as="geometry" />
        </mxCell>
        <mxCell id="lkNa364KhpQqWIQ_Bzma-23" value="&amp;lt;/ button&amp;gt;" style="text;html=1;align=center;verticalAlign=middle;whiteSpace=wrap;rounded=0;" vertex="1" parent="1">
          <mxGeometry x="227" y="451.75" width="66" height="30" as="geometry" />
        </mxCell>
        <mxCell id="lkNa364KhpQqWIQ_Bzma-24" value="&amp;lt; button&amp;gt;" style="text;html=1;align=center;verticalAlign=middle;whiteSpace=wrap;rounded=0;" vertex="1" parent="1">
          <mxGeometry x="121" y="446.25" width="69" height="30" as="geometry" />
        </mxCell>
        <mxCell id="lkNa364KhpQqWIQ_Bzma-29" value="" style="rounded=0;whiteSpace=wrap;html=1;" vertex="1" parent="1">
          <mxGeometry x="319.5" y="453.13" width="167" height="24.5" as="geometry" />
        </mxCell>
        <mxCell id="lkNa364KhpQqWIQ_Bzma-30" value="&amp;lt;/ button&amp;gt;" style="text;html=1;align=center;verticalAlign=middle;whiteSpace=wrap;rounded=0;" vertex="1" parent="1">
          <mxGeometry x="420.5" y="453.13" width="66" height="30" as="geometry" />
        </mxCell>
        <mxCell id="lkNa364KhpQqWIQ_Bzma-31" value="&amp;lt; button&amp;gt;" style="text;html=1;align=center;verticalAlign=middle;whiteSpace=wrap;rounded=0;" vertex="1" parent="1">
          <mxGeometry x="314.5" y="447.63" width="69" height="30" as="geometry" />
        </mxCell>
        <mxCell id="lkNa364KhpQqWIQ_Bzma-32" value="" style="rounded=0;whiteSpace=wrap;html=1;" vertex="1" parent="1">
          <mxGeometry x="510.5" y="453.13" width="167" height="24.5" as="geometry" />
        </mxCell>
        <mxCell id="lkNa364KhpQqWIQ_Bzma-33" value="&amp;lt;/ button&amp;gt;" style="text;html=1;align=center;verticalAlign=middle;whiteSpace=wrap;rounded=0;" vertex="1" parent="1">
          <mxGeometry x="611.5" y="453.13" width="66" height="30" as="geometry" />
        </mxCell>
        <mxCell id="lkNa364KhpQqWIQ_Bzma-34" value="&amp;lt; button&amp;gt;" style="text;html=1;align=center;verticalAlign=middle;whiteSpace=wrap;rounded=0;" vertex="1" parent="1">
          <mxGeometry x="505.5" y="447.63" width="69" height="30" as="geometry" />
        </mxCell>
        <mxCell id="lkNa364KhpQqWIQ_Bzma-35" value="&amp;lt; /section &amp;gt;" style="text;html=1;align=center;verticalAlign=middle;whiteSpace=wrap;rounded=0;" vertex="1" parent="1">
          <mxGeometry x="650" y="540" width="69" height="30" as="geometry" />
        </mxCell>
        <mxCell id="lkNa364KhpQqWIQ_Bzma-36" value="&amp;lt;/body&amp;gt;&amp;nbsp;" style="text;html=1;align=center;verticalAlign=middle;whiteSpace=wrap;rounded=0;" vertex="1" parent="1">
          <mxGeometry x="744" y="616" width="60" height="30" as="geometry" />
        </mxCell>
      </root>
    </mxGraphModel>
  </diagram>
</mxfile>
